# xmcd CD database file
#
# Track frame offsets:
#	150
#	21148
#	34064
#	60809
#	74495
#	99547
#	123344
#	145695
#	164214
#	179381
#	204374
#	220799
#	255460
#
# Disc length: 3722 seconds
#
# Revision: 1
# Processed by: cddbd v1.5.1PL2 Copyright (c) Steve Scherf et al.
# Submitted via: CDex 1.60beta1-cs1
#
DISCID=b50e880d
DTITLE=Glenn Tipton - Baptizm Of Fire
DYEAR=1997
DGENRE=Hard Rock
TTITLE0=Hard Core
TTITLE1=Paint It Black
TTITLE2=Enter The Storm
TTITLE3=Fuel Me Up
TTITLE4=Extinct
TTITLE5=Baptizm Of Fire
TTITLE6=The Healer
TTITLE7=Cruise Control
TTITLE8=Kill Or Be Killed
TTITLE9=Voodoo Brother
TTITLE10=Left For Dead
TTITLE11=Himalaya
TTITLE12=New Breed
EXTD=YEAR: 1997
EXTT0=
EXTT1=
EXTT2=
EXTT3=
EXTT4=
EXTT5=
EXTT6=
EXTT7=
EXTT8=
EXTT9=
EXTT10=
EXTT11=
EXTT12=
PLAYORDER=
